<?xml version="1.0" standalone="no"?>
<!DOCTYPE svg PUBLIC "-//W3C//DTD SVG 20010904//EN"
 "http://www.w3.org/TR/2001/REC-SVG-20010904/DTD/svg10.dtd">
<svg version="1.0" xmlns="http://www.w3.org/2000/svg"
 width="640.000000pt" height="640.000000pt" viewBox="0 0 640.000000 640.000000"
 preserveAspectRatio="xMidYMid meet">
<metadata>
Created by potrace 1.11, written by Peter Selinger 2001-2013
</metadata>
<g transform="translate(0.000000,640.000000) scale(0.100000,-0.100000)"
fill="#000000" stroke="none">
<path d="M2880 6379 c-239 -25 -543 -94 -760 -172 -460 -167 -843 -410 -1186
-752 -491 -491 -795 -1094 -907 -1805 -18 -117 -21 -177 -21 -450 0 -273 3
-333 21 -450 33 -206 69 -358 132 -550 159 -481 415 -895 775 -1255 532 -530
1211 -850 1965 -925 133 -13 469 -13 602 0 632 63 1221 302 1714 697 142 113
367 338 479 478 363 454 593 982 677 1550 28 189 28 721 0 910 -29 194 -66
349 -130 545 -159 481 -415 895 -775 1255 -532 530 -1211 850 -1965 925 -121
12 -499 11 -621 -1z"/>
</g>
</svg>
