<?xml version="1.0" encoding="UTF-8"?>
<!-- Generator: Adobe Illustrator 16.0.3, SVG Export Plug-In . SVG Version: 6.00 Build 0)  -->
<!DOCTYPE svg PUBLIC "-//W3C//DTD SVG 1.1//EN" "http://www.w3.org/Graphics/SVG/1.1/DTD/svg11.dtd">
<svg version="1.1" id="Layer_1" xmlns="http://www.w3.org/2000/svg" xmlns:xlink="http://www.w3.org/1999/xlink" x="0px" y="0px" width="215.279px" height="215.281px" viewBox="0 0 215.279 215.281" enable-background="new 0 0 215.279 215.281" xml:space="preserve">
<g id="Layer_3">
	<g>
		<path fill="#F6921E" d="M114.651,166.68l-2.322-99.498c-1.741,0.995-3.731,1.576-5.887,1.576c-2.072,0-3.98-0.499-5.638-1.41    l-2.322,99.332c-24.542,1.243-44.358,7.791-49.582,16.415h115.25C159.01,174.39,139.276,167.839,114.651,166.68z"/>
		<path fill="#F6921E" d="M17.393,107.146L17.393,107.146L17.393,107.146z"/>
		<path fill="#F6921E" d="M74.604,107.146L50.227,47.034l44.69,12.023c-0.083-0.664-0.167-1.327-0.167-2.073    c0-2.902,1.079-5.638,2.819-7.71L39.614,33.768c-2.736-0.747-5.472,0.912-6.219,3.565c-0.746,2.736,0.912,5.472,3.566,6.219    l5.638,1.492l-25.206,62.103c0.995,13.102,13.432,23.549,28.605,23.549C61.255,130.695,73.608,120.248,74.604,107.146z     M24.772,106.897l21.226-50.495l21.226,50.495H24.772z"/>
		<path fill="#F6921E" d="M138.613,140.81L138.613,140.81L138.613,140.81z"/>
		<path fill="#F6921E" d="M170.949,79.37l2.735,0.747c2.737,0.747,5.474-0.912,6.219-3.566l0,0c0.746-2.736-0.911-5.472-3.564-6.218    l-58.122-15.588c0.166,0.746,0.166,1.41,0.166,2.156c0,2.902-1.079,5.555-2.738,7.546l48.754,13.1l-25.702,63.179    c0.994,13.101,13.432,23.549,28.604,23.549c15.174,0,27.61-10.448,28.605-23.549L170.949,79.37z M145.994,140.81l21.224-50.495    l21.227,50.495H145.994z"/>
		<circle fill="#F6921E" cx="106.526" cy="56.984" r="8.457"/>
		<path fill="#F6921E" d="M111.914,46.536l-0.165-6.384c-0.082-2.819-2.323-5.058-5.14-5.058c-2.819,0-5.058,2.239-5.141,5.058    l-0.165,6.302c1.575-0.747,3.316-1.161,5.223-1.161C108.515,45.21,110.34,45.625,111.914,46.536z"/>
	</g>
</g>
</svg>