<?xml version="1.0" encoding="UTF-8" standalone="no"?>
<svg xmlns:dc="http://purl.org/dc/elements/1.1/" xmlns:cc="http://creativecommons.org/ns#" xmlns:rdf="http://www.w3.org/1999/02/22-rdf-syntax-ns#" xmlns:svg="http://www.w3.org/2000/svg" xmlns="http://www.w3.org/2000/svg" xmlns:sodipodi="http://sodipodi.sourceforge.net/DTD/sodipodi-0.dtd" xmlns:inkscape="http://www.inkscape.org/namespaces/inkscape" id="svg8" version="1.1" viewBox="0 0 84.666665 26.458334" height="100" width="320" sodipodi:docname="lp-logo.svg" inkscape:version="0.92.4 (5da689c313, 2019-01-14)">
  <sodipodi:namedview pagecolor="#ffffff" bordercolor="#666666" borderopacity="1" objecttolerance="10" gridtolerance="10" guidetolerance="10" inkscape:pageopacity="0" inkscape:pageshadow="2" inkscape:window-width="1078" inkscape:window-height="632" id="namedview27" showgrid="false" inkscape:zoom="1.503125" inkscape:cx="147.7039" inkscape:cy="65.344799" inkscape:window-x="181" inkscape:window-y="0" inkscape:window-maximized="0" inkscape:current-layer="layer1"/>
  <defs id="defs2"/>
  <metadata id="metadata5">
    <rdf:RDF>
      <cc:Work rdf:about="">
        <dc:format>image/svg+xml</dc:format>
        <dc:type rdf:resource="http://purl.org/dc/dcmitype/StillImage"/>
        <dc:title/>
        <cc:license rdf:resource="http://creativecommons.org/licenses/by-sa/4.0/"/>
        <dc:creator>
          <cc:Agent>
            <dc:title>Valessio Brito &lt;contato@valessiobrito.com.br&gt;</dc:title>
          </cc:Agent>
        </dc:creator>
        <dc:rights>
          <cc:Agent>
            <dc:title>Free Art License</dc:title>
          </cc:Agent>
        </dc:rights>
      </cc:Work>
      <cc:License rdf:about="http://creativecommons.org/licenses/by-sa/4.0/">
        <cc:permits rdf:resource="http://creativecommons.org/ns#Reproduction"/>
        <cc:permits rdf:resource="http://creativecommons.org/ns#Distribution"/>
        <cc:requires rdf:resource="http://creativecommons.org/ns#Notice"/>
        <cc:requires rdf:resource="http://creativecommons.org/ns#Attribution"/>
        <cc:permits rdf:resource="http://creativecommons.org/ns#DerivativeWorks"/>
        <cc:requires rdf:resource="http://creativecommons.org/ns#ShareAlike"/>
      </cc:License>
    </rdf:RDF>
  </metadata>
  <g transform="translate(0,-270.54167)" id="layer1">
    <path id="path1133-0" style="font-style:normal;font-variant:normal;font-weight:bold;font-stretch:normal;font-size:7.59748316px;line-height:1.25;font-family:'Exo 2';-inkscape-font-specification:'Exo 2, Bold';font-variant-ligatures:normal;font-variant-caps:normal;font-variant-numeric:normal;font-feature-settings:normal;text-align:center;letter-spacing:0px;word-spacing:0px;writing-mode:lr-tb;text-anchor:middle;opacity:1;vector-effect:none;fill:#75507b;fill-opacity:1;stroke:none;stroke-width:0.47494414;stroke-linecap:butt;stroke-linejoin:miter;stroke-miterlimit:4;stroke-dasharray:none;stroke-dashoffset:0;stroke-opacity:1;marker:none;marker-start:none;marker-mid:none;marker-end:none;paint-order:normal" d="m 55.64868,284.08777 0.05539,0.8863 q -0.743852,0.0792 -2.532263,0.0792 -0.54602,0 -0.870466,-0.2928 -0.324446,-0.3007 -0.33236,-0.80715 v -3.30778 q 0.0079,-0.50645 0.33236,-0.79925 0.324446,-0.3007 0.870466,-0.3007 1.788411,0 2.532263,0.0792 l -0.05539,0.89421 h -2.097031 q -0.197833,0 -0.284879,0.095 -0.08704,0.095 -0.08704,0.30862 v 0.8309 h 2.176164 v 0.87047 H 53.17973 v 1.05247 q 0,0.22157 0.08704,0.31653 0.08704,0.095 0.284879,0.095 z m -4.412296,0.9417 h -1.274045 l -0.411493,-1.66971 q -0.07913,-0.26115 -0.21366,-0.35611 -0.126613,-0.1029 -0.371926,-0.1029 l -0.846725,-0.008 v 2.13661 h -1.187 v -5.4602 q 0.73594,-0.0712 2.081205,-0.0712 1.099952,0 1.558924,0.34818 0.458973,0.34819 0.458973,1.26614 0,0.60141 -0.245313,0.94168 -0.237399,0.34027 -0.799245,0.4115 v 0.0396 q 0.625153,0.14243 0.775506,0.82298 z m -3.117849,-3.06246 H 48.989 q 0.4748,0 0.648892,-0.15827 0.174094,-0.16618 0.174094,-0.61723 0,-0.45107 -0.174094,-0.60933 -0.16618,-0.15827 -0.648892,-0.15827 l -0.870465,0.008 z m -3.202672,0.21366 v 0.0317 q 0.609326,0.0554 0.870465,0.41941 0.26114,0.35609 0.26114,1.03664 0,0.82299 -0.419405,1.12369 -0.419407,0.30071 -1.432313,0.30071 -1.519358,0 -2.302776,-0.0633 v -5.4602 q 0.704285,-0.0633 2.04955,-0.0633 1.092038,0 1.511445,0.30071 0.419407,0.29279 0.419407,1.12369 0,0.5935 -0.229487,0.90212 -0.221573,0.30071 -0.728026,0.34818 z m -1.843804,-0.37984 h 0.878378 q 0.443146,0 0.601413,-0.14244 0.16618,-0.14244 0.16618,-0.56184 0,-0.4115 -0.174094,-0.54603 -0.174092,-0.13453 -0.656806,-0.13453 l -0.815071,-0.008 z m 0,2.3819 h 0.917945 q 0.498539,0 0.672633,-0.14243 0.174092,-0.15035 0.174092,-0.60142 0,-0.49062 -0.182006,-0.6568 -0.182006,-0.17409 -0.696372,-0.182 h -0.886292 z m -2.294617,0.84674 h -1.202825 v -5.4602 h 1.202825 z m -4.21978,-5.4602 v 4.07537 q 0,0.21365 0.09496,0.30861 0.102876,0.095 0.332359,0.095 h 1.875458 l 0.05539,0.91794 q -0.799245,0.0871 -2.31069,0.0871 -0.633066,0 -0.941686,-0.31653 -0.308619,-0.31654 -0.308619,-0.84673 v -4.32068 z"/>
    <path id="path1145-2" style="font-style:normal;font-variant:normal;font-weight:normal;font-stretch:normal;font-size:7.59748316px;line-height:1.25;font-family:'Exo 2';-inkscape-font-specification:'Exo 2, Bold';font-variant-ligatures:normal;font-variant-caps:normal;font-variant-numeric:normal;font-feature-settings:normal;text-align:center;letter-spacing:0px;word-spacing:0px;writing-mode:lr-tb;text-anchor:middle;opacity:1;vector-effect:none;fill:#729fcf;fill-opacity:1;stroke:none;stroke-width:0.61641067;stroke-linecap:butt;stroke-linejoin:miter;stroke-miterlimit:4;stroke-dasharray:none;stroke-dashoffset:0;stroke-opacity:1;marker:none;marker-start:none;marker-mid:none;marker-end:none;paint-order:normal" d="m 84.092383,280.18651 h -1.764671 v 4.84296 H 81.63134 v -4.84296 h -1.756759 v -0.61724 h 4.217802 z m -4.83937,4.26528 0.03165,0.53811 q -0.728026,0.0475 -2.342344,0.0475 -0.482713,0 -0.767592,-0.25323 -0.276967,-0.26113 -0.28488,-0.69638 v -3.57682 q 0.0079,-0.43523 0.28488,-0.68845 0.284879,-0.26115 0.767592,-0.26115 1.614318,0 2.342344,0.0475 l -0.03165,0.54602 h -2.191991 q -0.474799,0 -0.474799,0.52228 v 1.18699 h 2.35817 v 0.56185 h -2.35817 v 1.49562 q 0,0.53019 0.474799,0.53019 z m -4.69322,-4.88252 v 5.18322 q 0,0.27698 -0.269053,0.27698 h -0.680545 q -0.21366,0 -0.30862,-0.22157 l -1.843805,-3.86962 q -0.269053,-0.58559 -0.308619,-0.72011 h -0.126613 q 0.03165,0.31652 0.03165,0.72011 v 4.09119 h -0.696373 v -5.18324 q 0,-0.27696 0.276967,-0.27696 h 0.656806 q 0.213659,0 0.308619,0.22157 l 1.788411,3.77466 q 0.197834,0.38775 0.371927,0.79133 h 0.134526 q -0.02374,-0.42732 -0.02374,-0.8309 v -3.95666 z m -6.220613,3.75092 h -2.247384 l -0.538106,1.70928 h -0.720113 l 1.756758,-5.27028 q 0.04748,-0.18992 0.26114,-0.18992 h 0.728026 q 0.21366,0 0.26114,0.18992 l 1.756758,5.27028 h -0.720113 z m -0.18992,-0.60142 -0.688459,-2.16825 q -0.07122,-0.20574 -0.134527,-0.44314 h -0.221573 l -0.134526,0.44314 -0.688459,2.16825 z m -6.098577,-3.1495 v 4.35233 q 0,0.52228 0.530192,0.52228 h 1.970418 l 0.03165,0.5381 q -0.688459,0.0554 -2.112857,0.0554 -1.107865,0 -1.107865,-1.02873 v -4.43938 z m -5.340257,5.4602 v -5.4602 q 0.66472,-0.0713 1.875458,-0.0713 0.997079,0 1.376918,0.36402 0.37984,0.35611 0.37984,1.34527 0,0.98917 -0.371926,1.35318 -0.364013,0.3561 -1.305699,0.3561 -0.648892,0 -1.258218,-0.0712 v 2.18409 z m 0.696373,-2.71427 h 1.171172 q 0.609326,-0.008 0.830899,-0.22949 0.229486,-0.22949 0.229486,-0.87838 0,-0.64889 -0.229486,-0.87838 -0.229487,-0.22949 -0.830899,-0.22949 -0.862553,0 -1.171172,0.008 z"/>
    <path style="color:#000000;font-style:normal;font-variant:normal;font-weight:normal;font-stretch:normal;font-size:medium;line-height:normal;font-family:sans-serif;font-variant-ligatures:normal;font-variant-position:normal;font-variant-caps:normal;font-variant-numeric:normal;font-variant-alternates:normal;font-feature-settings:normal;text-indent:0;text-align:start;text-decoration:none;text-decoration-line:none;text-decoration-style:solid;text-decoration-color:#000000;letter-spacing:normal;word-spacing:normal;text-transform:none;writing-mode:lr-tb;direction:ltr;text-orientation:mixed;dominant-baseline:auto;baseline-shift:baseline;text-anchor:start;white-space:normal;shape-padding:0;clip-rule:nonzero;display:inline;overflow:visible;visibility:visible;opacity:1;isolation:auto;mix-blend-mode:normal;color-interpolation:sRGB;color-interpolation-filters:linearRGB;solid-color:#000000;solid-opacity:1;vector-effect:none;fill:#ffffff;fill-opacity:1;fill-rule:nonzero;stroke:none;stroke-width:0.82858324;stroke-linecap:butt;stroke-linejoin:miter;stroke-miterlimit:4;stroke-dasharray:none;stroke-dashoffset:0;stroke-opacity:1;marker:none;paint-order:normal;color-rendering:auto;image-rendering:auto;shape-rendering:auto;text-rendering:auto;enable-background:accumulate" d="m 24.989068,271.36853 c -1.112641,0 -2.0214,0.90868 -2.0214,2.0214 v 2.18903 l -0.250528,0.37172 a 11.369514,11.369514 0 0 0 -7.117863,-2.51673 11.369514,11.369514 0 0 0 -8.7443297,4.10913 h -4.547474 c -0.933215,0 -1.73318835,0.72792 -1.73318835,1.68073 v 1.05517 c 0,0.95329 0.77703135,1.78952 1.75700545,1.73198 l 2.2960461,-0.13506 a 11.369514,11.369514 0 0 0 -0.3976474,2.92764 11.369514,11.369514 0 0 0 11.3695879,11.36959 11.369514,11.369514 0 0 0 9.380748,-4.94603 c 0.205965,0.0851 0.430946,0.13295 0.666565,0.13295 h 5.180875 c 0.965919,0 1.757006,-0.79108 1.757006,-1.757 v -0.70757 c 0,-0.96592 -0.797985,-1.7323 -1.754593,-1.7353 l -4.10973,-0.0121 a 11.369514,11.369514 0 0 0 0.248717,-2.34459 11.369514,11.369514 0 0 0 -2.837498,-7.4929 l 0.940909,-0.31534 5.938788,0.0124 c 1.11362,0.002 2.022307,-0.90876 2.022307,-2.0214 v -1.59632 c 0,-1.11264 -0.908762,-2.0214 -2.021402,-2.0214 z" id="path2345-6" inkscape:connector-curvature="0"/>
    <path id="path2347-7" d="m 15.599418,273.89222 c -3.186742,0.005 -6.2120616,1.40279 -8.281281,3.82635 h 0.6257186 c 0.7223711,0 1.3168852,0.53638 1.4111312,1.23272 0.8377742,0.0413 1.6756092,0.0823 2.5133732,0.12368 0.176633,0.0305 0.192487,-0.25008 0.368454,-0.26833 -0.07593,-0.71236 -0.151841,-1.42461 -0.227766,-2.13698 -0.15996,-0.0217 -0.296173,-0.14759 -0.342076,-0.30066 -0.114118,-0.32691 0.28338,-0.64814 0.583173,-0.49156 0.325917,0.13284 0.301531,0.66597 -0.0329,0.76953 0.07141,0.66717 0.142733,1.3342 0.214152,2.0014 -0.03819,0.19676 0.232828,0.15255 0.289318,0.29669 1.684368,-0.73496 3.368751,-1.4698 5.053124,-2.20477 -0.02106,-0.1411 0.03253,-0.29276 0.143241,-0.38406 0.26146,-0.25199 0.761652,5.5e-4 0.70429,0.36136 0.807989,0.20101 1.616038,0.40202 2.424024,0.60303 0.229534,0.0382 0.44859,0.14437 0.682165,0.1475 -0.278677,-0.35206 -0.557503,-0.70396 -0.836183,-1.05601 -0.146958,0.0671 -0.328868,0.0332 -0.449578,-0.0715 -0.275004,-0.21854 -0.101356,-0.70961 0.241382,-0.72755 0.02146,-0.004 0.0429,-0.004 0.06354,-0.004 h 2.91e-4 c 0.309643,0.009 0.518035,0.42731 0.307754,0.67338 0.221897,0.2803 0.443821,0.56068 0.665713,0.841 0.05348,0.109 0.157829,0.20853 0.279106,0.20082 l 0.571363,-0.88826 c -0.08988,-0.0716 -0.373754,-0.31023 -0.465608,-0.37875 -1.87714,-1.40022 -4.157987,-2.16124 -6.505916,-2.16511 z m 2.949619,3.02109 c -0.149642,0.23081 -0.528471,0.23811 -0.691526,0.0187 -1.566851,0.68346 -3.133707,1.36671 -4.700556,2.05017 -0.140202,0.0704 -0.410058,0.10845 -0.363347,0.32251 0.944692,0.50697 1.889768,1.0145 2.834459,1.52147 0.129413,0.0375 0.282605,0.2429 0.407879,0.0936 -0.165426,-0.53567 -0.330949,-1.07119 -0.496378,-1.60685 -0.160953,0.008 -0.318326,-0.0874 -0.392845,-0.22918 -0.177124,-0.30334 0.162553,-0.69836 0.488718,-0.5914 0.33895,0.0768 0.408008,0.59552 0.10353,0.75903 0.124755,0.40363 0.249654,0.80753 0.374411,1.21117 0.08267,0.12329 0.01986,0.36546 0.203657,0.39965 0.341945,-0.83712 0.683434,-1.67426 1.025374,-2.51139 -0.132967,-0.0969 -0.193596,-0.27725 -0.156289,-0.43597 0.06189,-0.34136 0.569231,-0.42375 0.751091,-0.13784 0.2125,0.27404 -0.06211,0.71866 -0.40079,0.65239 -0.290469,0.71089 -0.581452,1.42181 -0.871922,2.13272 -0.01432,0.14802 -0.215024,0.29298 -0.09757,0.43737 0.334281,-0.17739 0.668403,-0.35472 1.002683,-0.53211 -0.0394,-0.1566 0.02664,-0.32951 0.151467,-0.42916 0.264781,-0.2309 0.715737,0.0295 0.671953,0.36959 -0.01208,0.34673 -0.507498,0.51281 -0.725279,0.24479 l -0.785695,0.41639 c -0.151687,0.0265 -0.253915,0.16308 -0.218974,0.31711 0.782222,0.43183 1.564655,0.8633 2.346875,1.29512 0.164516,-0.18204 0.489301,-0.17 0.640185,0.0236 0.930933,-0.35629 1.862106,-0.71249 2.793046,-1.06878 -0.03748,-0.18067 0.05865,-0.37996 0.2272,-0.45751 -0.181735,-0.88526 -0.363155,-1.77107 -0.544882,-2.65633 -0.064,-0.1266 0.01278,-0.37898 -0.182383,-0.39711 -0.320231,0.5834 -0.64047,1.1667 -0.960703,1.75009 0.111695,0.11602 0.144247,0.29704 0.08651,0.44646 -0.111051,0.33326 -0.632954,0.3378 -0.766974,0.0221 -0.165371,-0.30515 0.178782,-0.69876 0.50205,-0.57806 0.2442,-0.445 0.488168,-0.89013 0.73237,-1.33512 0.04305,-0.15853 0.238095,-0.27875 0.187773,-0.45412 -0.508636,0.20325 -1.017651,0.40661 -1.52629,0.60984 0.02088,0.15973 -0.06048,0.325 -0.195998,0.41043 -0.287824,0.20145 -0.71016,-0.10609 -0.62884,-0.43965 0.0494,-0.34316 0.559886,-0.45437 0.747687,-0.16479 0.405689,-0.16218 0.811145,-0.32456 1.216833,-0.48674 0.09939,-0.0736 0.334004,-0.048 0.304918,-0.22237 -1.03113,-0.25667 -2.062295,-0.51313 -3.093425,-0.76982 z m 5.011819,0.44261 -1.083062,0.33883 c -0.0012,0.0209 0.0016,0.0433 0.01078,0.0689 0.649912,0.22578 1.299859,0.45129 1.949772,0.67707 -0.1915,-0.26972 -0.395137,-0.53054 -0.610275,-0.78169 -0.05581,-0.0651 -0.209866,-0.2393 -0.267214,-0.30313 z m -1.152836,0.62134 c 0.388302,0.46935 0.77633,0.93865 1.164643,1.40801 0.145775,-0.069 0.327833,-0.0408 0.450995,0.0616 0.27994,0.2124 0.116321,0.70794 -0.225782,0.73322 -0.342281,0.0587 -0.60503,-0.39449 -0.386039,-0.66174 -0.38517,-0.46523 -0.770122,-0.93004 -1.155284,-1.39524 0.206283,1.00508 0.412344,2.01032 0.618628,3.01542 0.297254,0.003 0.513547,0.3768 0.352854,0.63167 0.711001,0.62062 1.421725,1.24095 2.132722,1.86156 0.240502,-0.17266 0.620177,0.0162 0.642171,0.30748 0.05445,0.33679 -0.385267,0.59934 -0.6538,0.38887 -0.685555,0.57742 -1.371156,1.15482 -2.056705,1.73222 0.04231,0.0811 0.0472,0.17146 0.02893,0.25783 l 2.079113,0.84143 0.914091,0.0172 c 0.03371,-0.17441 0.0607,-0.69169 0.08584,-0.8674 0.07134,-0.49852 0.108117,-1.00161 0.109968,-1.50563 -0.0051,-2.16221 -0.652593,-4.27413 -1.860139,-6.06773 -0.48274,-0.16766 -0.96584,-0.33526 -1.448572,-0.5029 -0.267178,-0.0765 -0.519359,-0.20951 -0.793636,-0.25585 z m 2.168744,0.64529 c 0.0084,0.0117 0.01685,0.0235 0.02524,0.0352 -0.0084,-0.0117 -0.01681,-0.0235 -0.02524,-0.0352 z m -15.2073114,0.53978 -0.1452257,1.62403 c -0.00333,0.0376 -0.00292,0.0736 -0.00618,0.10932 l 0.5340455,1.01346 c 0.021393,0.0413 0.042704,0.0827 0.064104,0.12396 0.011184,0.18035 0.1996026,0.16428 0.3318626,0.18777 0.591418,-0.84477 1.183063,-1.68961 1.77448,-2.53437 0.136561,-0.10039 0.13537,-0.26183 0.04652,-0.39682 -0.704132,-0.0346 -1.408174,-0.0695 -2.1123006,-0.10409 -0.1618092,-0.0118 -0.3245496,-0.0173 -0.4872999,-0.0233 z m 3.3200574,0.35144 v 5.4e-4 c -0.05113,0.004 -0.09783,0.034 -0.130476,0.0749 0.237848,1.38503 0.475512,2.76981 0.713366,4.15483 0.03236,0.14155 0.0063,0.39768 0.212733,0.39455 0.257853,-0.3062 0.516207,-0.61254 0.774066,-0.91872 -0.09391,-0.13088 -0.09976,-0.31488 -0.02071,-0.45412 0.156911,-0.30823 0.663838,-0.24519 0.758181,0.0797 0.130078,0.32706 -0.270877,0.67855 -0.577216,0.50913 -0.216205,0.25697 -0.432209,0.51426 -0.648411,0.77124 -0.178843,0.086 -0.0463,0.28213 -0.05191,0.42376 l 4.084195,1.36207 c 0.129434,0.0274 0.326161,0.17632 0.408448,0 -0.552102,-1.23581 -1.104093,-2.47171 -1.656199,-3.70752 -0.103158,-0.15752 -0.109095,-0.38035 -0.264924,-0.49752 -0.129763,0.7437 -0.259684,1.48772 -0.389444,2.23143 0.147633,0.0653 0.243596,0.22341 0.245352,0.38321 0.01938,0.3453 -0.451038,0.5453 -0.695495,0.31172 -0.276956,-0.21752 -0.106135,-0.72335 0.243934,-0.73095 0.129757,-0.74391 0.259112,-1.4881 0.388876,-2.23199 -0.181744,-0.0802 -0.288612,-0.29814 -0.237978,-0.49071 -1.035267,-0.55196 -2.067748,-1.11419 -3.104772,-1.66018 -0.01767,-0.006 -0.03458,-0.007 -0.05162,-0.005 z m -0.454115,0.0896 v 2.9e-4 c -0.565021,0.80687 -1.130321,1.61377 -1.695342,2.42063 -0.05943,0.12882 -0.242072,0.23318 -0.189758,0.38944 0.223119,0.27853 -0.132027,0.73106 -0.4612062,0.60672 -0.2490218,0.44075 -0.4978202,0.88159 -0.7468362,1.32235 0.1500375,0.14356 0.1657582,0.39876 0.043679,0.56445 0.3490142,0.45924 0.6982011,0.91788 1.0472154,1.3771 0.138308,-0.0668 0.312772,-0.0436 0.430571,0.0544 0.747631,-0.55334 1.49514,-1.10655 2.242776,-1.65989 -0.09239,-0.20277 0.01936,-0.46113 0.220392,-0.54857 -0.231643,-1.34722 -0.463006,-2.69415 -0.694644,-4.04137 -0.06778,-0.14918 0.01703,-0.37087 -0.138703,-0.46943 -0.0193,-0.005 -0.03884,-0.0111 -0.05815,-0.0162 z m 4.33437,1.99289 c -0.01741,0.002 -0.03424,0.008 -0.04878,0.0184 l 1.713211,3.83345 c 0.09619,0.11172 0.06204,0.35303 0.243367,0.37215 0.21316,-0.82574 0.426174,-1.65162 0.639336,-2.47736 -0.168788,-0.087 -0.26013,-0.29672 -0.207629,-0.47936 -0.595614,-0.32863 -1.190785,-0.65732 -1.786393,-0.98594 -0.173697,-0.0815 -0.329969,-0.19308 -0.500916,-0.27741 -0.01692,-0.004 -0.03477,-0.006 -0.0522,-0.004 z m 5.962774,0.22777 c -0.87556,0.33318 -1.749207,0.67445 -2.62598,1.0024 -0.189735,-0.005 -0.157007,0.22185 -0.213868,0.34293 0.915767,0.83279 1.827552,1.67063 2.745961,2.50032 0.09954,0.0794 0.217033,0.28752 0.361079,0.1665 -0.01239,-1.18704 -0.02477,-2.37408 -0.03716,-3.56115 0.02863,-0.15584 -0.0014,-0.35894 -0.183234,-0.40079 -0.01563,-0.0169 -0.03116,-0.0333 -0.0468,-0.0502 z m 0.545731,0.11232 c -0.03342,-0.006 -0.06881,0.002 -0.108351,0.0323 l 0.03517,3.47664 c 0.0131,0.15515 -0.06669,0.41205 0.150615,0.45297 0.65124,-0.54579 1.302125,-1.09233 1.951758,-1.64003 0.190529,-0.10438 -0.02559,-0.33894 0.112039,-0.47312 -0.621965,-0.54336 -1.244133,-1.08647 -1.866098,-1.62982 -0.09576,-0.0541 -0.174874,-0.20067 -0.275135,-0.21898 z M 5.1017334,281.75719 c -0.00966,0.0457 -0.087935,0.45501 -0.097001,0.50083 0.2636056,0.53261 0.5269106,1.06488 0.7905179,1.59749 0.2406898,-0.0367 0.4978821,0.12964 0.5522549,0.36902 0.5273516,0.066 1.0545316,0.13202 1.581885,0.19799 0.1882533,-0.004 0.3780929,0.0978 0.5616166,0.04 -0.9666383,-0.78065 -1.881966,-1.93946 -2.8485751,-2.7201 z m 0.8344146,-0.0837 c 0.8628142,0.69848 1.7084854,1.84431 2.5713095,2.54282 0.1286171,0.16481 0.3063507,-0.0768 0.4560995,0.0195 0.2269048,-0.40118 0.4532817,-0.80205 0.6801801,-1.20322 0.1402057,-0.14513 -0.09728,-0.27569 -0.057867,-0.42915 L 7.090061,281.68732 Z m -1.0020432,0.92945 c -0.1563966,0.72336 -0.238795,1.46075 -0.24592,2.2008 0.0042,0.49276 0.041678,0.98469 0.1123236,1.4724 -0.00599,-0.0473 -0.011662,-0.0947 -0.017023,-0.14211 0.2657908,-0.52065 0.5312556,-1.04139 0.7970407,-1.56203 -0.2248146,-0.1347 -0.2097064,-0.4997 0.00851,-0.63339 -0.2183372,-0.44509 -0.4366061,-0.89056 -0.6549356,-1.33567 z m 14.6357682,0.74768 c -0.08585,-0.01 -0.165907,0.0311 -0.250175,0.0397 -0.202212,0.78383 -0.404222,1.56785 -0.606431,2.3517 -0.102222,0.17514 0.173179,0.23328 0.17444,0.3988 h 3.234399 c 0.133779,-0.0396 0.360305,0.0909 0.419225,-0.0905 -0.875458,-0.79826 -1.750798,-1.59684 -2.626263,-2.39509 -0.125873,-0.0901 -0.21152,-0.23486 -0.345195,-0.30464 z M 6.3406977,284.4367 c -0.059268,0.22053 -0.3302149,0.30656 -0.5318332,0.24138 -0.3232773,0.61703 -0.6467826,1.23432 -0.970064,1.85135 0.2763532,1.72142 0.9611859,3.35157 1.9971401,4.75389 -0.042757,-0.0587 -0.084927,-0.11777 -0.1265053,-0.17729 1.1348742,0.37499 2.2697117,0.75053 3.4045837,1.1255 0.132922,0.0401 0.340642,0.16775 0.424617,-0.0142 -0.07299,-0.19706 -0.145995,-0.39435 -0.218975,-0.59141 -0.164046,0.0185 -0.3318533,-0.0745 -0.4109999,-0.21784 -0.1751241,-0.28488 0.1167979,-0.6747 0.4365289,-0.6104 0.346571,0.0352 0.472561,0.54245 0.19231,0.74088 -0.01526,0.13867 0.109344,0.31873 0.147212,0.47312 0.01711,0.20416 0.27288,0.0905 0.363632,0.22096 0.700302,-0.51493 1.400651,-1.0301 2.100954,-1.54501 0.206404,-0.0651 0.108311,-0.22097 0.138702,-0.38065 -0.55089,-0.30401 -1.101345,-0.6079 -1.652229,-0.91192 -0.113762,0.1198 -0.300712,0.16223 -0.454398,0.10126 -0.327061,-0.0782 -0.417325,-0.56953 -0.130193,-0.74967 -0.158937,-0.43084 -0.317874,-0.86201 -0.476806,-1.29286 -0.08509,-0.11056 -0.03587,-0.35346 -0.217556,-0.36249 -0.3848704,1.08399 -0.7695609,2.16799 -1.1544328,3.25198 0.1345415,0.0878 0.2022343,0.2595 0.1775615,0.4164 -0.03858,0.34254 -0.5319943,0.46286 -0.7360569,0.19429 -0.2364148,-0.26068 0.017829,-0.72597 0.3616476,-0.67876 0.3529509,-0.98993 0.7061679,-1.97983 1.0591266,-2.96975 0.07218,-0.13228 0.128882,-0.31838 -0.02014,-0.42378 -0.6097843,0.16532 -1.2149115,0.34599 -1.8218472,0.52134 -8.751e-4,0.19538 -0.1500691,0.37682 -0.3392389,0.42122 -0.3128964,0.0988 -0.5994462,-0.27651 -0.4529801,-0.5585 0.1103773,-0.30342 0.5982204,-0.37088 0.7442827,-0.0644 0.5537554,-0.16099 1.1072681,-0.3221 1.6610217,-0.48305 0.1912318,0.0151 0.1584851,-0.19161 0.2391138,-0.3001 -0.3488144,-0.46033 -0.6975439,-0.92075 -1.046365,-1.38106 -0.1472519,0.0694 -0.3335415,0.0313 -0.4456055,-0.0854 -1.1968603,0.78466 -2.3937912,1.5693 -3.590655,2.35397 -0.017607,-0.0742 -0.034444,-0.14865 -0.050493,-0.22323 1.048364,-0.68736 2.096976,-1.37444 3.1453337,-2.06181 0.1110546,-0.12011 0.3476467,-0.13212 0.3735599,-0.31627 -0.7067759,-0.0893 -1.4131783,-0.17846 -2.1199577,-0.26776 z m 7.3506443,0.33016 c -0.05271,-0.002 -0.09929,0.0173 -0.130476,0.0823 0.358835,0.80687 0.717593,1.61374 1.07643,2.42062 0.158963,-0.0282 0.326577,0.0496 0.417524,0.18068 0.211529,0.28034 -0.07951,0.7128 -0.415822,0.64472 -0.345208,-0.036 -0.47529,-0.54289 -0.192594,-0.74088 -0.339964,-0.76403 -0.680015,-1.52807 -1.019986,-2.29212 -0.03752,-0.20869 -0.300153,-0.0693 -0.397386,-0.21302 -0.696759,0.51497 -1.393405,1.02973 -2.090175,1.54473 -0.205655,0.0654 -0.108938,0.22225 -0.13927,0.38178 0.54744,0.30374 1.094577,0.60735 1.642018,0.91107 0.119747,-0.12618 0.32218,-0.167 0.479358,-0.0905 0.312098,0.0897 0.382317,0.56661 0.106084,0.7389 0.208351,0.55275 0.416804,1.10544 0.625152,1.65818 0.162966,-0.0154 0.330624,0.0716 0.408165,0.21642 0.617875,-0.16462 1.235743,-0.32946 1.853617,-0.4941 -0.003,-0.16141 0.100115,-0.31458 0.244217,-0.38349 0.310019,-0.16531 0.691615,0.19041 0.571827,0.51198 -0.0901,0.33523 -0.611178,0.38408 -0.762436,0.0735 -0.565712,0.15108 -1.131328,0.30247 -1.697046,0.45355 -0.179249,-0.0271 -0.168375,0.19033 -0.24053,0.29471 0.359729,0.4556 0.719826,0.91127 1.079552,1.36688 0.151209,-0.0678 0.340079,-0.0363 0.459787,0.0786 1.234805,-0.79834 2.469588,-1.5962 3.704395,-2.39453 0.111316,-0.0906 0.319044,-0.12231 0.287901,-0.31002 -0.04945,-0.33082 0.384432,-0.55328 0.64217,-0.36591 0.302067,0.17986 0.206599,0.70644 -0.141822,0.76188 -0.02596,1.65907 -0.05204,3.31831 -0.078,4.97739 -0.06907,0.032 -0.138472,0.0631 -0.208195,0.0936 0.02595,-1.68061 0.05177,-3.36118 0.07772,-5.04178 -0.443119,0.84587 -0.88632,1.69162 -1.329442,2.53749 0.193933,0.15885 0.18334,0.49354 -0.01446,0.64472 0.307606,0.66245 0.614807,1.3245 0.922411,1.98693 2.114012,-0.79298 3.929968,-2.22224 5.197499,-4.09072 -0.477595,-0.21063 -0.641095,-0.73602 -0.641095,-1.29188 v -1.47439 c 0,-0.0414 0.004,-0.0806 0.0071,-0.11941 l -0.741103,-1.54542 c -0.07335,0.11043 -0.190906,0.19086 -0.327609,0.19174 -0.169738,0.80211 -0.339405,1.60378 -0.509142,2.40588 -0.007,0.17314 -0.167297,0.37973 -0.01276,0.52758 0.285418,0.18077 0.140992,0.66445 -0.173874,0.71932 -0.339852,0.10065 -0.657833,-0.33821 -0.452697,-0.62714 -0.89876,-0.89866 -1.796709,-1.79709 -2.695473,-2.69575 -0.153028,-0.1103 -0.238285,-0.31717 -0.426318,-0.3713 -0.272559,0.15025 -0.640015,-0.11149 -0.605012,-0.41582 -1.362368,-0.45411 -2.725229,-0.90795 -4.087601,-1.36206 -0.07989,-0.0167 -0.184735,-0.0811 -0.272582,-0.0848 z m 5.299896,1.57564 c -0.07334,0.004 -0.143665,0.0322 -0.150899,0.11886 0.951728,0.95172 1.903721,1.90344 2.855449,2.85516 0.09873,0.12365 0.249191,0.28739 0.419226,0.17926 0.196742,-0.92968 0.393798,-1.85939 0.590547,-2.78907 0.04276,-0.14121 -0.207799,-0.18952 -0.202805,-0.35739 -1.146354,-0.003 -2.294141,0.005 -3.439471,-0.003 -0.02301,-0.004 -0.0476,-0.006 -0.07205,-0.004 z m -8.28894,0.63594 c -0.02594,0.004 -0.04997,0.0178 -0.06694,0.038 0.204125,0.55226 0.408266,1.10452 0.612389,1.65677 0.284217,-0.0351 0.575987,0.25137 0.490705,0.53865 0.438115,0.24174 0.876022,0.4841 1.314124,0.72584 0.136753,0.0281 0.26037,0.24624 0.403058,0.12991 -0.206963,-0.55344 -0.414891,-1.10648 -0.623449,-1.65932 -0.283981,0.0355 -0.57554,-0.25135 -0.490138,-0.53836 -0.394085,-0.21857 -0.788149,-0.43751 -1.182231,-0.65607 -0.153381,-0.0614 -0.278454,-0.17719 -0.431139,-0.23542 -0.0089,-10e-4 -0.01773,-10e-4 -0.02638,0 z m 8.985287,2.72015 c -1.204848,0.7787 -2.40964,1.5574 -3.614481,2.3361 -0.113476,0.12014 -0.349624,0.13314 -0.379516,0.31768 0.715418,0.0641 1.430921,0.12797 2.146338,0.19202 0.06688,-0.19872 0.297636,-0.31441 0.498929,-0.27088 0.449705,-0.85824 0.899026,-1.71668 1.34873,-2.57492 z m -6.257763,1.04438 -2.258377,1.6596 c 0.05252,0.1162 0.03987,0.25666 -0.02297,0.36619 -0.05916,0.13782 -0.269485,0.16064 -0.169904,0.33668 0.100873,0.56589 0.193774,1.13325 0.291303,1.69988 0.643665,0.27833 1.312663,0.49394 1.997708,0.64388 0.09203,-0.13128 0.183959,-0.26271 0.275986,-0.39399 0.0503,-0.12938 0.231495,-0.21703 0.195998,-0.36873 -0.235736,-0.28642 0.123368,-0.75636 0.465744,-0.6331 0.260214,-0.4438 0.520944,-0.88733 0.781157,-1.33114 -0.154003,-0.13983 -0.16533,-0.39818 -0.03914,-0.55963 -0.35894,-0.45481 -0.718346,-0.90952 -1.077282,-1.36433 -0.141915,0.0653 -0.319185,0.0439 -0.440217,-0.0553 z m -6.5113413,0.64869 c 0.4089491,0.53947 0.8672136,1.0397 1.3688673,1.49425 -0.105104,-0.0942 -0.2083698,-0.19051 -0.309739,-0.28876 0.051385,-0.12313 0.1510976,-0.22433 0.2898844,-0.24194 0.032798,-0.006 0.06657,-0.009 0.099843,-0.008 0.099818,0.005 0.1973251,0.0436 0.2705975,0.11232 0.216416,0.17799 0.1410142,0.53295 -0.076868,0.66629 0.2478585,0.20895 0.5049067,0.40675 0.7703785,0.59282 0.1038305,-0.0455 0.2224115,-0.0512 0.3298777,0.009 0.2161045,-0.25698 0.4325899,-0.51424 0.6486949,-0.77122 0.17847,-0.0864 0.04545,-0.28213 0.05106,-0.42377 -1.1476742,-0.38038 -2.2949082,-0.76044 -3.4425926,-1.14082 z m 8.8219093,1.17146 c -0.03146,0.003 -0.05553,0.0143 -0.06694,0.0383 1.048898,0.86399 2.115405,1.73598 3.176534,2.60499 -0.04707,0.0161 -0.09425,0.0317 -0.141539,0.0471 0.176984,-0.0555 0.352523,-0.11561 0.526444,-0.18011 -0.305169,-0.65703 -0.610439,-1.31402 -0.915605,-1.97105 -0.223853,0.0443 -0.463418,-0.12419 -0.497796,-0.34973 -0.578743,-0.0516 -1.15773,-0.10324 -1.736471,-0.15487 -0.08888,0.0149 -0.25025,-0.0446 -0.344627,-0.0346 z m -0.24053,0.21812 c -0.111519,0.0125 -0.220626,0.11192 -0.331582,0.0442 -0.237648,0.40535 -0.475428,0.81034 -0.713081,1.2157 -0.14584,0.14588 0.107174,0.27965 0.05361,0.43653 1.114761,0.32959 2.229687,0.65889 3.344451,0.9885 -0.07894,0.0181 -0.158083,0.0355 -0.23741,0.0519 0.334564,-0.0642 0.665941,-0.14395 0.993039,-0.23911 -0.37293,-0.30554 -0.74605,-0.61064 -1.118977,-0.91617 -0.648873,-0.52448 -1.285887,-1.06843 -1.942114,-1.58104 -0.01603,-0.003 -0.032,-0.002 -0.04794,-5.5e-4 z m -4.905631,0.16281 c -0.257559,0.30629 -0.514519,0.61215 -0.772081,0.91845 0.047471,0.0662 0.071626,0.14587 0.074315,0.22662 -0.1575557,-0.0956 -0.3126642,-0.1952 -0.4651759,-0.29867 0.509837,0.3493 1.0484269,0.65465 1.6099639,0.91277 -0.07828,-0.45503 -0.156581,-0.91017 -0.234857,-1.36519 -0.03261,-0.14145 -0.0059,-0.39651 -0.212165,-0.39398 z m 3.897558,1.74839 c -0.05221,-0.002 -0.09744,0.0175 -0.125088,0.0828 0.156643,0.29879 0.309468,0.6002 0.462908,0.90086 -0.05581,-0.002 -0.111589,-0.005 -0.16735,-0.009 0.311564,0.0292 0.62424,0.045 0.937161,0.0474 0.603788,-0.005 1.206142,-0.0596 1.800858,-0.16395 -0.878951,-0.25999 -1.757798,-0.52007 -2.636759,-0.78003 -0.07811,-0.0115 -0.184701,-0.0751 -0.27173,-0.0786 z m -0.555093,0.16678 c -0.149359,0.21305 -0.298799,0.42629 -0.448157,0.63933 0.36277,0.0718 0.728954,0.12509 1.097135,0.1597 -0.104974,-0.20391 -0.21016,-0.40792 -0.315129,-0.61183 -0.01086,-0.18262 -0.200992,-0.16348 -0.333849,-0.1872 z" style="opacity:1;vector-effect:none;fill:#729fcf;fill-opacity:1;stroke:none;stroke-width:0.32359466;stroke-linecap:butt;stroke-linejoin:miter;stroke-miterlimit:4;stroke-dasharray:none;stroke-dashoffset:0;stroke-opacity:1;marker:none;marker-start:none;marker-mid:none;marker-end:none;paint-order:normal" inkscape:connector-curvature="0"/>
    <path id="path2349-5" d="m 25.646322,290.94536 c -0.743629,0 -1.343373,-0.59851 -1.342375,-1.34214 l 0.0018,-1.34213 c 4.9e-5,-0.0372 0.0025,-0.0738 0.0061,-0.10985 l -0.684486,-1.43198 1.711102,0.83945 5.489583,0.0157 c 0.743618,0.002 1.342128,0.57767 1.342128,1.3213 v 0.70745 c 0,0.74364 -0.598507,1.34215 -1.342128,1.34215 z" style="opacity:1;vector-effect:none;fill:#edd400;fill-opacity:1;stroke:none;stroke-width:0.22959884;stroke-linecap:butt;stroke-linejoin:miter;stroke-miterlimit:4;stroke-dasharray:none;stroke-dashoffset:0;stroke-opacity:1;marker:none;marker-start:none;marker-mid:none;marker-end:none;paint-order:normal" inkscape:connector-curvature="0"/>
    <path style="opacity:1;vector-effect:none;fill:#73d216;fill-opacity:1;stroke:none;stroke-width:0.21422353;stroke-linecap:butt;stroke-linejoin:miter;stroke-miterlimit:4;stroke-dasharray:none;stroke-dashoffset:0;stroke-opacity:1;marker:none;marker-start:none;marker-mid:none;marker-end:none;paint-order:normal" d="m 7.5332573,277.95738 c 0.7305281,0 1.5144407,0.64284 1.4483901,1.37037 l -0.1242702,1.36881 c -0.00333,0.0369 -0.00233,0.0736 -0.00604,0.10968 l 0.7311821,1.48697 -2.4554979,-0.9788 -4.819858,0.2829 c -0.729268,0.0428 -1.31848139,-0.58798 -1.31848139,-1.3185 v -1.05479 c 0,-0.73052 0.58795909,-1.26664 1.31848139,-1.26664 z" id="path2351-3" inkscape:connector-curvature="0"/>
    <path id="path2353-5" d="m 24.989447,271.78282 c -0.890344,0 -1.607221,0.71661 -1.607221,1.60696 v 2.19731 c 0,0.0365 0.0019,0.0723 0.006,0.10773 l -1.243222,1.84496 2.860442,-0.95866 6.006583,0.0125 c 0.890341,0.002 1.60694,-0.7166 1.60694,-1.60695 v -1.59697 c 0,-0.89035 -0.7166,-1.60695 -1.606943,-1.60695 z" style="opacity:1;vector-effect:none;fill:#75507b;fill-opacity:1;stroke:none;stroke-width:0.34864849;stroke-linecap:butt;stroke-linejoin:miter;stroke-miterlimit:4;stroke-dasharray:none;stroke-dashoffset:0;stroke-opacity:1;marker:none;marker-start:none;marker-mid:none;marker-end:none;paint-order:normal" inkscape:connector-curvature="0"/>
  </g>
</svg>